<svg id="Lager_1" data-name="Lager 1" xmlns="http://www.w3.org/2000/svg" viewBox="0 0 224.01 69.85"><title>Logo_NIKE</title><path d="M-14.4-28.22q-10-.34-16.4-4.8a31.5,31.5,0,0,1-3.41-3,18.07,18.07,0,0,1-3.69-5.82c-2.42-6.33-1.18-14.64,3.55-23.76,4.05-7.81,10.3-15.55,21.2-26.27,1.61-1.58,6.39-6.2,6.42-6.2s-.25.4-.58.88a52.94,52.94,0,0,0-6.58,13.28c-2.12,6.8-1.86,12.63.75,17.16a18.19,18.19,0,0,0,8.38,7.3c6.09,2.61,15,2.83,25.9.64.75-.16,37.9-8.79,82.55-19.18s81.2-18.9,81.21-18.89S81.15-58,27.28-37.84c-8.53,3.19-10.81,4-14.82,5.22C2.21-29.47-7-28-14.4-28.22Z" transform="translate(39.11 98.05)"/></svg>